<svg width="171" height="57" viewBox="0 0 171 57" fill="none" xmlns="http://www.w3.org/2000/svg">
<path d="M44.4034 17.2391H49.5278V37H40.1212L36.4358 19.3802H36.3656V37H31.2762V17.2391H39.9808L44.3332 34.8589H44.4034V17.2391ZM59.8429 37.351C58.1348 37.351 56.7074 37.0351 55.5608 36.4033C54.4142 35.7481 53.5601 34.8589 52.9986 33.7358C52.437 32.6126 52.1562 31.3373 52.1562 29.9099C52.1328 28.4592 52.4019 27.1839 52.9635 26.0841C53.525 24.9609 54.3791 24.0718 55.5257 23.4166C56.6957 22.7614 58.1348 22.4338 59.8429 22.4338C62.3467 22.4338 64.242 23.1241 65.529 24.5047C66.8394 25.8618 67.4946 27.6636 67.4946 29.9099C67.4946 31.3139 67.2138 32.5775 66.6522 33.7007C66.114 34.8238 65.2833 35.713 64.1601 36.3682C63.037 37.0234 61.5979 37.351 59.8429 37.351ZM59.8429 33.2795C60.7087 33.2795 61.3522 33.104 61.7734 32.753C62.1946 32.402 62.4637 31.9574 62.5807 31.4192C62.7211 30.8576 62.7913 30.296 62.7913 29.7345C62.7913 29.1495 62.7211 28.5879 62.5807 28.0497C62.4637 27.5115 62.1946 27.0669 61.7734 26.7159C61.3522 26.3415 60.7087 26.1543 59.8429 26.1543C58.9771 26.1543 58.3219 26.3415 57.8774 26.7159C57.4562 27.0669 57.1754 27.5115 57.035 28.0497C56.918 28.5879 56.8595 29.1495 56.8595 29.7345C56.8595 30.296 56.918 30.8576 57.035 31.4192C57.1754 31.9574 57.4562 32.402 57.8774 32.753C58.3219 33.104 58.9771 33.2795 59.8429 33.2795ZM69.7867 37V22.4689H74.1039V25.1364H74.1741C74.1741 25.1364 74.2443 25.0077 74.3847 24.7504C74.5251 24.4696 74.7474 24.1537 75.0516 23.8027C75.3792 23.4517 75.8004 23.1475 76.3152 22.8901C76.83 22.6093 77.4617 22.4689 78.2105 22.4689C79.2167 22.4689 80.0006 22.7263 80.5622 23.2411C81.1238 23.7559 81.5333 24.3877 81.7907 25.1364H81.8609C81.8609 25.1364 81.9427 25.0077 82.1065 24.7504C82.2703 24.4696 82.516 24.1537 82.8436 23.8027C83.1946 23.4517 83.6392 23.1475 84.1774 22.8901C84.739 22.6093 85.4059 22.4689 86.1781 22.4689C87.0672 22.4689 87.7809 22.6678 88.3191 23.0656C88.8807 23.44 89.3136 23.9431 89.6178 24.5749C89.922 25.1832 90.1326 25.8384 90.2496 26.5404C90.3666 27.219 90.4251 27.8742 90.4251 28.506C90.4485 29.1378 90.4602 29.6526 90.4602 30.0503V37H86.3887V30.0152C86.3887 29.5707 86.3536 29.1027 86.2834 28.6113C86.2366 28.0965 86.0728 27.6636 85.792 27.3126C85.5112 26.9382 85.0198 26.751 84.3178 26.751C83.7328 26.751 83.2882 26.8914 82.984 27.1722C82.7032 27.4296 82.516 27.7689 82.4224 28.1901C82.3522 28.5879 82.3054 29.0091 82.282 29.4537C82.282 29.5707 82.282 29.676 82.282 29.7695C82.282 29.8631 82.282 29.9567 82.282 30.0503V37H78.2105V30.0152C78.2105 29.5707 78.1754 29.1027 78.1052 28.6113C78.0584 28.0965 77.8946 27.6636 77.6138 27.3126C77.333 26.9382 76.8417 26.751 76.1397 26.751C75.4611 26.751 74.9814 26.9265 74.7006 27.2775C74.4198 27.6285 74.2443 28.0614 74.1741 28.5762C74.1273 29.0676 74.1039 29.5473 74.1039 30.0152V37H69.7867ZM100.084 37.351C98.3755 37.351 96.9481 37.0351 95.8016 36.4033C94.655 35.7481 93.8009 34.8589 93.2393 33.7358C92.6777 32.6126 92.3969 31.3373 92.3969 29.9099C92.3735 28.4592 92.6426 27.1839 93.2042 26.0841C93.7658 24.9609 94.6199 24.0718 95.7665 23.4166C96.9364 22.7614 98.3755 22.4338 100.084 22.4338C102.587 22.4338 104.483 23.1241 105.77 24.5047C107.08 25.8618 107.735 27.6636 107.735 29.9099C107.735 31.3139 107.455 32.5775 106.893 33.7007C106.355 34.8238 105.524 35.713 104.401 36.3682C103.278 37.0234 101.839 37.351 100.084 37.351ZM100.084 33.2795C100.949 33.2795 101.593 33.104 102.014 32.753C102.435 32.402 102.704 31.9574 102.821 31.4192C102.962 30.8576 103.032 30.296 103.032 29.7345C103.032 29.1495 102.962 28.5879 102.821 28.0497C102.704 27.5115 102.435 27.0669 102.014 26.7159C101.593 26.3415 100.949 26.1543 100.084 26.1543C99.2179 26.1543 98.5627 26.3415 98.1181 26.7159C97.6969 27.0669 97.4161 27.5115 97.2757 28.0497C97.1587 28.5879 97.1002 29.1495 97.1002 29.7345C97.1002 30.296 97.1587 30.8576 97.2757 31.4192C97.4161 31.9574 97.6969 32.402 98.1181 32.753C98.5627 33.104 99.2179 33.2795 100.084 33.2795ZM110.027 37V22.5391H114.274L115.082 25.1364H115.152C115.152 25.1364 115.21 25.0077 115.327 24.7504C115.468 24.4696 115.702 24.1537 116.029 23.8027C116.357 23.4517 116.813 23.1475 117.398 22.8901C118.007 22.6093 118.779 22.4689 119.715 22.4689C120.768 22.4689 121.61 22.6561 122.242 23.0305C122.897 23.4049 123.389 23.8963 123.716 24.5047C124.067 25.0896 124.301 25.7331 124.418 26.4351C124.535 27.1137 124.594 27.7806 124.594 28.4358C124.617 29.0676 124.629 29.6058 124.629 30.0503V37H119.855V30.0152C119.855 29.5005 119.808 28.9974 119.715 28.506C119.645 28.0146 119.446 27.6051 119.118 27.2775C118.791 26.9265 118.229 26.751 117.433 26.751C116.661 26.751 116.111 26.9265 115.784 27.2775C115.456 27.6051 115.257 28.0146 115.187 28.506C115.117 28.9974 115.082 29.5005 115.082 30.0152V37H110.027ZM134.117 37.351C132.362 37.351 130.946 37 129.87 36.298C128.794 35.596 127.998 34.6951 127.483 33.5954C126.992 32.4722 126.723 31.3022 126.676 30.0854C126.629 28.4943 126.91 27.1254 127.518 25.9788C128.127 24.8089 128.981 23.9197 130.081 23.3113C131.204 22.6795 132.491 22.3636 133.942 22.3636C135.322 22.3636 136.551 22.6561 137.627 23.2411C138.727 23.8027 139.581 24.61 140.189 25.6629C140.821 26.7159 141.137 27.9795 141.137 29.4537V30.3662H131.309C131.309 31.3958 131.555 32.1446 132.046 32.6126C132.561 33.0806 133.216 33.3146 134.012 33.3146C134.69 33.3146 135.229 33.1625 135.626 32.8583C136.048 32.5307 136.293 32.1212 136.363 31.6298H141.102C141.032 32.6594 140.727 33.6188 140.189 34.508C139.651 35.3737 138.879 36.064 137.873 36.5788C136.867 37.0936 135.615 37.351 134.117 37.351ZM131.379 28.4007H136.223C136.223 28.4007 136.211 28.2954 136.188 28.0848C136.188 27.8742 136.118 27.6285 135.977 27.3477C135.837 27.0669 135.603 26.8212 135.275 26.6106C134.948 26.4 134.468 26.2947 133.836 26.2947C133.205 26.2947 132.713 26.4 132.362 26.6106C132.011 26.8212 131.765 27.0669 131.625 27.3477C131.508 27.6285 131.438 27.8742 131.414 28.0848C131.391 28.2954 131.379 28.4007 131.379 28.4007ZM142.493 43.9848V40.2642H144.95C145.301 40.2642 145.617 40.2408 145.898 40.194C146.202 40.1472 146.494 39.9834 146.775 39.7026C147.056 39.4452 147.372 38.9773 147.723 38.2987L148.144 37.3159L142.493 22.4689H147.512L150.496 32.3669L153.76 22.4689H158.779L152.215 38.6848C151.724 39.8781 151.268 40.8258 150.847 41.5278C150.425 42.2298 149.981 42.7563 149.513 43.1073C149.045 43.4583 148.507 43.6923 147.898 43.8093C147.313 43.9263 146.6 43.9848 145.757 43.9848H142.493Z" fill="white"/>
<path d="M29.5948 52.7156L32.1899 45.3366H33.5792L36.2136 52.7156H35.3224L34.5229 50.4088H31.2855L30.486 52.7156H29.5948ZM32.9108 45.7036L31.5215 49.7011H34.2869L32.9108 45.7036ZM41.3032 52.7156H40.4643V45.3366H45.5628V46.0837H41.3032V48.4429H44.6584V49.1506H41.3032V52.7156ZM46.8443 46.8045C46.652 46.8045 46.521 46.7565 46.4511 46.6604C46.3899 46.5555 46.3593 46.4244 46.3593 46.2672C46.3593 46.1361 46.3899 46.0225 46.4511 45.9264C46.521 45.8215 46.652 45.7691 46.8443 45.7691C47.0365 45.7691 47.1632 45.8215 47.2243 45.9264C47.2943 46.0225 47.3292 46.1361 47.3292 46.2672C47.3292 46.4244 47.2943 46.5555 47.2243 46.6604C47.1632 46.7565 47.0365 46.8045 46.8443 46.8045ZM46.4248 52.7156V47.3812H47.2637V52.7156H46.4248ZM48.4925 52.7156V47.3812H49.2134L49.3575 48.705H49.3838C49.3925 48.6613 49.4318 48.5695 49.5017 48.4297C49.5716 48.2899 49.6765 48.1414 49.8163 47.9841C49.9648 47.8181 50.157 47.6783 50.393 47.5647C50.6289 47.4424 50.9303 47.3812 51.2973 47.3812C51.7604 47.3812 52.123 47.4642 52.3852 47.6302C52.656 47.7963 52.857 48.0191 52.9881 48.2987C53.1191 48.5695 53.2021 48.8623 53.2371 49.1768C53.272 49.4914 53.2895 49.7928 53.2895 50.0812V52.7156H52.4769V50.0812C52.4769 49.5045 52.3764 49.037 52.1755 48.6788C51.9832 48.3205 51.5988 48.1414 51.0221 48.1414C50.6289 48.1414 50.3056 48.2375 50.0522 48.4297C49.8075 48.6132 49.6284 48.8623 49.5148 49.1768C49.41 49.4826 49.3575 49.819 49.3575 50.186V52.7156H48.4925ZM56.2161 52.8336C55.7268 52.8336 55.3248 52.7156 55.0103 52.4797C54.6957 52.235 54.4598 51.9074 54.3025 51.4967C54.154 51.086 54.0797 50.6185 54.0797 50.0943C54.0797 49.2904 54.2545 48.6307 54.604 48.1152C54.9622 47.5909 55.4996 47.3288 56.2161 47.3288C56.5831 47.3288 56.8889 47.3943 57.1335 47.5254C57.3869 47.6477 57.5879 47.8006 57.7364 47.9841C57.8937 48.1676 58.0073 48.3424 58.0772 48.5084H58.0903V47.3812H58.9553V52.7156H58.2345L58.1034 51.6802H58.0772C57.9986 51.8549 57.885 52.034 57.7364 52.2175C57.5879 52.3923 57.3869 52.5408 57.1335 52.6632C56.8889 52.7768 56.5831 52.8336 56.2161 52.8336ZM56.5437 52.0865C57.0855 52.0865 57.4743 51.9074 57.7102 51.5491C57.9549 51.1909 58.0772 50.7103 58.0772 50.1074C58.0772 49.4608 57.9505 48.9671 57.6971 48.6263C57.4525 48.2856 57.068 48.1152 56.5437 48.1152C55.967 48.1152 55.552 48.3074 55.2986 48.6919C55.054 49.0676 54.9316 49.5351 54.9316 50.0943C54.9316 50.6797 55.0583 51.1603 55.3117 51.536C55.5651 51.903 55.9758 52.0865 56.5437 52.0865ZM59.9352 52.7156V47.3812H60.656L60.8002 48.705H60.8264C60.8351 48.6613 60.8745 48.5695 60.9444 48.4297C61.0143 48.2899 61.1191 48.1414 61.2589 47.9841C61.4075 47.8181 61.5997 47.6783 61.8356 47.5647C62.0715 47.4424 62.373 47.3812 62.74 47.3812C63.2031 47.3812 63.5657 47.4642 63.8278 47.6302C64.0987 47.7963 64.2996 48.0191 64.4307 48.2987C64.5618 48.5695 64.6448 48.8623 64.6797 49.1768C64.7147 49.4914 64.7322 49.7928 64.7322 50.0812V52.7156H63.9196V50.0812C63.9196 49.5045 63.8191 49.037 63.6181 48.6788C63.4259 48.3205 63.0414 48.1414 62.4647 48.1414C62.0715 48.1414 61.7482 48.2375 61.4948 48.4297C61.2502 48.6132 61.0711 48.8623 60.9575 49.1768C60.8526 49.4826 60.8002 49.819 60.8002 50.186V52.7156H59.9352ZM68.2354 52.8467C67.7374 52.8467 67.2917 52.7418 66.8985 52.5321C66.5053 52.3224 66.1951 52.0166 65.968 51.6146C65.7408 51.2127 65.6272 50.7278 65.6272 50.1598C65.6447 49.6006 65.7626 49.1113 65.9811 48.6919C66.2083 48.2725 66.5184 47.9492 66.9116 47.722C67.3048 47.4861 67.7548 47.3681 68.2616 47.3681C68.7335 47.3681 69.1441 47.4555 69.4936 47.6302C69.8431 47.805 70.1227 48.0409 70.3325 48.338C70.5422 48.6351 70.6732 48.9627 70.7257 49.321H69.9524C69.865 48.9365 69.6728 48.6394 69.3757 48.4297C69.0873 48.22 68.7247 48.1152 68.2878 48.1152C67.7286 48.1152 67.283 48.303 66.951 48.6788C66.6277 49.0458 66.4616 49.5263 66.4529 50.1205C66.4529 50.7234 66.6102 51.204 66.9247 51.5622C67.248 51.9117 67.698 52.0865 68.2747 52.0865C68.6941 52.0865 69.0567 51.9816 69.3626 51.7719C69.6684 51.5622 69.865 51.2608 69.9524 50.8676H70.7257C70.6732 51.2345 70.5378 51.5666 70.3193 51.8637C70.1096 52.1607 69.8257 52.401 69.4674 52.5845C69.1179 52.7593 68.7072 52.8467 68.2354 52.8467ZM72.379 46.8045C72.1868 46.8045 72.0557 46.7565 71.9858 46.6604C71.9247 46.5555 71.8941 46.4244 71.8941 46.2672C71.8941 46.1361 71.9247 46.0225 71.9858 45.9264C72.0557 45.8215 72.1868 45.7691 72.379 45.7691C72.5713 45.7691 72.698 45.8215 72.7591 45.9264C72.829 46.0225 72.864 46.1361 72.864 46.2672C72.864 46.4244 72.829 46.5555 72.7591 46.6604C72.698 46.7565 72.5713 46.8045 72.379 46.8045ZM71.9596 52.7156V47.3812H72.7984V52.7156H71.9596ZM75.9015 52.8336C75.4122 52.8336 75.0103 52.7156 74.6957 52.4797C74.3812 52.235 74.1452 51.9074 73.988 51.4967C73.8394 51.086 73.7651 50.6185 73.7651 50.0943C73.7651 49.2904 73.9399 48.6307 74.2894 48.1152C74.6477 47.5909 75.185 47.3288 75.9015 47.3288C76.2685 47.3288 76.5743 47.3943 76.819 47.5254C77.0724 47.6477 77.2733 47.8006 77.4219 47.9841C77.5792 48.1676 77.6927 48.3424 77.7626 48.5084H77.7758V47.3812H78.6408V52.7156H77.9199L77.7889 51.6802H77.7626C77.684 51.8549 77.5704 52.034 77.4219 52.2175C77.2733 52.3923 77.0724 52.5408 76.819 52.6632C76.5743 52.7768 76.2685 52.8336 75.9015 52.8336ZM76.2292 52.0865C76.7709 52.0865 77.1597 51.9074 77.3957 51.5491C77.6403 51.1909 77.7626 50.7103 77.7626 50.1074C77.7626 49.4608 77.636 48.9671 77.3826 48.6263C77.1379 48.2856 76.7534 48.1152 76.2292 48.1152C75.6525 48.1152 75.2375 48.3074 74.9841 48.6919C74.7394 49.0676 74.6171 49.5351 74.6171 50.0943C74.6171 50.6797 74.7438 51.1603 74.9972 51.536C75.2506 51.903 75.6612 52.0865 76.2292 52.0865ZM79.8041 52.7156V45.3366H80.6298V52.7156H79.8041ZM86.086 52.7156H85.2472V45.3366H88.052C88.8646 45.3366 89.485 45.5332 89.9132 45.9264C90.3413 46.3196 90.5554 46.905 90.5554 47.6827C90.5554 48.4079 90.3326 48.9671 89.8869 49.3603C89.4501 49.7535 88.8384 49.9501 88.052 49.9501H86.086V52.7156ZM87.9603 46.0575H86.086V49.2948H87.9603C88.537 49.2948 88.9826 49.1637 89.2971 48.9016C89.6204 48.6307 89.7821 48.2244 89.7821 47.6827C89.7821 47.1235 89.6248 46.7128 89.3103 46.4507C89.0044 46.1885 88.5544 46.0575 87.9603 46.0575ZM91.5155 52.7156V45.3366H92.3412V52.7156H91.5155ZM95.395 52.8336C94.9057 52.8336 94.5037 52.7156 94.1892 52.4797C93.8746 52.235 93.6387 51.9074 93.4814 51.4967C93.3329 51.086 93.2586 50.6185 93.2586 50.0943C93.2586 49.2904 93.4334 48.6307 93.7829 48.1152C94.1411 47.5909 94.6785 47.3288 95.395 47.3288C95.762 47.3288 96.0678 47.3943 96.3124 47.5254C96.5658 47.6477 96.7668 47.8006 96.9153 47.9841C97.0726 48.1676 97.1862 48.3424 97.2561 48.5084H97.2692V47.3812H98.1342V52.7156H97.4134L97.2823 51.6802H97.2561C97.1775 51.8549 97.0639 52.034 96.9153 52.2175C96.7668 52.3923 96.5658 52.5408 96.3124 52.6632C96.0678 52.7768 95.762 52.8336 95.395 52.8336ZM95.7226 52.0865C96.2644 52.0865 96.6532 51.9074 96.8891 51.5491C97.1338 51.1909 97.2561 50.7103 97.2561 50.1074C97.2561 49.4608 97.1294 48.9671 96.876 48.6263C96.6314 48.2856 96.2469 48.1152 95.7226 48.1152C95.1459 48.1152 94.7309 48.3074 94.4775 48.6919C94.2329 49.0676 94.1105 49.5351 94.1105 50.0943C94.1105 50.6797 94.2372 51.1603 94.4906 51.536C94.744 51.903 95.1547 52.0865 95.7226 52.0865ZM99.1141 52.7156V47.3812H99.8349L99.9791 48.705H100.005C100.014 48.6613 100.053 48.5695 100.123 48.4297C100.193 48.2899 100.298 48.1414 100.438 47.9841C100.586 47.8181 100.779 47.6783 101.015 47.5647C101.25 47.4424 101.552 47.3812 101.919 47.3812C102.382 47.3812 102.745 47.4642 103.007 47.6302C103.278 47.7963 103.479 48.0191 103.61 48.2987C103.741 48.5695 103.824 48.8623 103.859 49.1768C103.894 49.4914 103.911 49.7928 103.911 50.0812V52.7156H103.098V50.0812C103.098 49.5045 102.998 49.037 102.797 48.6788C102.605 48.3205 102.22 48.1414 101.644 48.1414C101.25 48.1414 100.927 48.2375 100.674 48.4297C100.429 48.6132 100.25 48.8623 100.136 49.1768C100.032 49.4826 99.9791 49.819 99.9791 50.186V52.7156H99.1141ZM104.963 52.7156V47.3812H105.684L105.828 48.705H105.855C105.863 48.6613 105.903 48.5695 105.973 48.4297C106.042 48.2899 106.147 48.1414 106.287 47.9841C106.436 47.8181 106.628 47.6783 106.864 47.5647C107.1 47.4424 107.401 47.3812 107.768 47.3812C108.231 47.3812 108.594 47.4642 108.856 47.6302C109.127 47.7963 109.328 48.0191 109.459 48.2987C109.59 48.5695 109.673 48.8623 109.708 49.1768C109.743 49.4914 109.76 49.7928 109.76 50.0812V52.7156H108.948V50.0812C108.948 49.5045 108.847 49.037 108.646 48.6788C108.454 48.3205 108.07 48.1414 107.493 48.1414C107.1 48.1414 106.776 48.2375 106.523 48.4297C106.278 48.6132 106.099 48.8623 105.986 49.1768C105.881 49.4826 105.828 49.819 105.828 50.186V52.7156H104.963ZM111.481 46.8045C111.289 46.8045 111.158 46.7565 111.088 46.6604C111.027 46.5555 110.996 46.4244 110.996 46.2672C110.996 46.1361 111.027 46.0225 111.088 45.9264C111.158 45.8215 111.289 45.7691 111.481 45.7691C111.673 45.7691 111.8 45.8215 111.861 45.9264C111.931 46.0225 111.966 46.1361 111.966 46.2672C111.966 46.4244 111.931 46.5555 111.861 46.6604C111.8 46.7565 111.673 46.8045 111.481 46.8045ZM111.062 52.7156V47.3812H111.901V52.7156H111.062ZM113.129 52.7156V47.3812H113.85L113.994 48.705H114.021C114.029 48.6613 114.069 48.5695 114.139 48.4297C114.208 48.2899 114.313 48.1414 114.453 47.9841C114.602 47.8181 114.794 47.6783 115.03 47.5647C115.266 47.4424 115.567 47.3812 115.934 47.3812C116.397 47.3812 116.76 47.4642 117.022 47.6302C117.293 47.7963 117.494 48.0191 117.625 48.2987C117.756 48.5695 117.839 48.8623 117.874 49.1768C117.909 49.4914 117.926 49.7928 117.926 50.0812V52.7156H117.114V50.0812C117.114 49.5045 117.013 49.037 116.812 48.6788C116.62 48.3205 116.236 48.1414 115.659 48.1414C115.266 48.1414 114.942 48.2375 114.689 48.4297C114.444 48.6132 114.265 48.8623 114.152 49.1768C114.047 49.4826 113.994 49.819 113.994 50.186V52.7156H113.129ZM120.289 54.9175V54.118H122.95V51.536H122.924C122.906 51.5797 122.858 51.6714 122.78 51.8112C122.71 51.951 122.596 52.0996 122.439 52.2569C122.29 52.4141 122.094 52.5539 121.849 52.6763C121.613 52.7899 121.325 52.8467 120.984 52.8467C120.468 52.8467 120.036 52.7287 119.686 52.4928C119.346 52.2481 119.088 51.9205 118.913 51.5098C118.738 51.0991 118.651 50.636 118.651 50.1205C118.651 49.3166 118.848 48.6613 119.241 48.1545C119.643 47.639 120.228 47.3812 120.997 47.3812C121.355 47.3812 121.652 47.4424 121.888 47.5647C122.133 47.6783 122.325 47.8181 122.465 47.9841C122.614 48.1501 122.723 48.303 122.793 48.4429C122.863 48.5827 122.906 48.6744 122.924 48.7181H122.95V47.3812H123.815V53.6331C123.815 54.0525 123.736 54.3714 123.579 54.5898C123.422 54.8083 123.138 54.9175 122.727 54.9175H120.289ZM121.167 52.0996C121.692 52.0996 122.116 51.9248 122.439 51.5753C122.762 51.2171 122.924 50.7321 122.924 50.1205C122.924 49.5176 122.771 49.0414 122.465 48.6919C122.159 48.3336 121.753 48.1545 121.246 48.1545C120.827 48.1545 120.486 48.2506 120.224 48.4429C119.97 48.6263 119.783 48.8666 119.66 49.1637C119.538 49.4608 119.477 49.7797 119.477 50.1205C119.477 50.4525 119.529 50.7715 119.634 51.0773C119.748 51.3744 119.927 51.619 120.171 51.8112C120.425 52.0035 120.757 52.0996 121.167 52.0996ZM129.207 52.7156H128.368V45.3366H131.173C131.986 45.3366 132.606 45.5332 133.034 45.9264C133.462 46.3196 133.676 46.905 133.676 47.6827C133.676 48.4079 133.454 48.9671 133.008 49.3603C132.571 49.7535 131.96 49.9501 131.173 49.9501H129.207V52.7156ZM131.081 46.0575H129.207V49.2948H131.081C131.658 49.2948 132.104 49.1637 132.418 48.9016C132.742 48.6307 132.903 48.2244 132.903 47.6827C132.903 47.1235 132.746 46.7128 132.431 46.4507C132.126 46.1885 131.676 46.0575 131.081 46.0575ZM134.637 52.7156V45.3366H135.462V52.7156H134.637ZM138.516 52.8336C138.027 52.8336 137.625 52.7156 137.31 52.4797C136.996 52.235 136.76 51.9074 136.603 51.4967C136.454 51.086 136.38 50.6185 136.38 50.0943C136.38 49.2904 136.554 48.6307 136.904 48.1152C137.262 47.5909 137.8 47.3288 138.516 47.3288C138.883 47.3288 139.189 47.3943 139.434 47.5254C139.687 47.6477 139.888 47.8006 140.036 47.9841C140.194 48.1676 140.307 48.3424 140.377 48.5084H140.39V47.3812H141.255V52.7156H140.534L140.403 51.6802H140.377C140.299 51.8549 140.185 52.034 140.036 52.2175C139.888 52.3923 139.687 52.5408 139.434 52.6632C139.189 52.7768 138.883 52.8336 138.516 52.8336ZM138.844 52.0865C139.385 52.0865 139.774 51.9074 140.01 51.5491C140.255 51.1909 140.377 50.7103 140.377 50.1074C140.377 49.4608 140.251 48.9671 139.997 48.6263C139.752 48.2856 139.368 48.1152 138.844 48.1152C138.267 48.1152 137.852 48.3074 137.599 48.6919C137.354 49.0676 137.232 49.5351 137.232 50.0943C137.232 50.6797 137.358 51.1603 137.612 51.536C137.865 51.903 138.276 52.0865 138.844 52.0865ZM143.572 52.7156C143.249 52.7156 143.022 52.6282 142.891 52.4535C142.768 52.2787 142.707 52.0384 142.707 51.7326V48.0103H141.868V47.3812C142.148 47.3812 142.353 47.3594 142.484 47.3157C142.624 47.2633 142.711 47.1409 142.746 46.9487C142.781 46.7565 142.799 46.4419 142.799 46.005H143.52V47.3812H144.752V48.0103H143.52V52.034H144.765V52.7156H143.572ZM146.355 52.7549V48.0103H145.53V47.3812H146.355V46.2016C146.355 45.8958 146.417 45.6555 146.539 45.4808C146.67 45.306 146.897 45.2186 147.22 45.2186H148.806V45.9133H147.207V47.3812H148.715V48.0103H147.207V52.7549H146.355ZM151.776 52.8467C150.92 52.8467 150.278 52.5933 149.849 52.0865C149.43 51.571 149.22 50.9156 149.22 50.1205C149.212 49.3166 149.421 48.6613 149.849 48.1545C150.286 47.639 150.928 47.3768 151.776 47.3681C152.615 47.3681 153.248 47.6215 153.676 48.1283C154.113 48.6263 154.332 49.2904 154.332 50.1205C154.332 50.636 154.24 51.0991 154.057 51.5098C153.873 51.9205 153.593 52.2481 153.218 52.4928C152.842 52.7287 152.361 52.8467 151.776 52.8467ZM151.776 52.1127C152.23 52.1127 152.58 52.0122 152.825 51.8112C153.078 51.6103 153.253 51.3569 153.349 51.0511C153.454 50.7365 153.506 50.4176 153.506 50.0943C153.506 49.771 153.454 49.4521 153.349 49.1375C153.253 48.8229 153.078 48.5652 152.825 48.3642C152.58 48.1632 152.23 48.0628 151.776 48.0628C151.322 48.0628 150.968 48.1632 150.714 48.3642C150.47 48.5652 150.295 48.8229 150.19 49.1375C150.094 49.4521 150.046 49.771 150.046 50.0943C150.046 50.4176 150.094 50.7365 150.19 51.0511C150.295 51.3569 150.47 51.6103 150.714 51.8112C150.968 52.0122 151.322 52.1127 151.776 52.1127ZM155.486 52.7156V47.3812H156.246L156.338 48.7836C156.39 48.5477 156.495 48.3205 156.652 48.1021C156.809 47.8836 157.023 47.7089 157.294 47.5778C157.574 47.438 157.919 47.3725 158.33 47.3812H158.579V48.3118H158.317C157.757 48.3118 157.334 48.3948 157.045 48.5608C156.766 48.7181 156.573 48.9409 156.469 49.2292C156.372 49.5176 156.324 49.8496 156.324 50.2253V52.7156H155.486ZM159.31 52.7156V47.3812H160.03L160.083 48.705H160.109C160.127 48.6438 160.166 48.5433 160.227 48.4035C160.288 48.255 160.384 48.1021 160.515 47.9448C160.646 47.7875 160.817 47.6565 161.027 47.5516C161.236 47.438 161.503 47.3812 161.826 47.3812C162.315 47.3812 162.674 47.5167 162.901 47.7875C163.137 48.0584 163.294 48.3642 163.373 48.705H163.399C163.425 48.6438 163.473 48.5433 163.543 48.4035C163.613 48.255 163.718 48.1021 163.858 47.9448C163.997 47.7875 164.176 47.6565 164.395 47.5516C164.622 47.438 164.897 47.3812 165.221 47.3812C165.561 47.3812 165.841 47.4511 166.059 47.5909C166.278 47.722 166.444 47.9011 166.557 48.1283C166.68 48.3467 166.767 48.5783 166.82 48.8229C166.872 49.0676 166.903 49.3035 166.911 49.5307C166.92 49.7579 166.924 49.9414 166.924 50.0812V52.7156H166.191V50.0812C166.191 49.9414 166.182 49.7622 166.164 49.5438C166.147 49.3254 166.103 49.1113 166.033 48.9016C165.963 48.6831 165.841 48.504 165.666 48.3642C165.5 48.2157 165.26 48.1414 164.945 48.1414C164.596 48.1414 164.316 48.2375 164.107 48.4297C163.897 48.622 163.744 48.8754 163.648 49.1899C163.552 49.4957 163.504 49.8278 163.504 50.186V52.7156H162.77V50.0812C162.77 49.9414 162.761 49.7622 162.743 49.5438C162.726 49.3254 162.682 49.1113 162.612 48.9016C162.543 48.6831 162.42 48.504 162.245 48.3642C162.079 48.2157 161.839 48.1414 161.525 48.1414C161.175 48.1414 160.895 48.2375 160.686 48.4297C160.476 48.622 160.323 48.8754 160.227 49.1899C160.131 49.4957 160.083 49.8278 160.083 50.186V52.7156H159.31ZM168.473 52.7156C168.255 52.7156 168.106 52.6588 168.027 52.5452C167.958 52.4229 167.923 52.2831 167.923 52.1258C167.923 51.9598 167.958 51.82 168.027 51.7064C168.106 51.5928 168.255 51.536 168.473 51.536C168.692 51.536 168.836 51.5928 168.906 51.7064C168.984 51.82 169.024 51.9598 169.024 52.1258C169.024 52.2918 168.984 52.4316 168.906 52.5452C168.836 52.6588 168.692 52.7156 168.473 52.7156Z" fill="white"/>
<path d="M7.79023 52.7062L8.16922 48.1392C6.93401 47.9004 5.74091 47.4377 4.58992 46.7512C3.43893 46.0348 2.44234 45.0646 1.60016 43.8408C0.786042 42.617 0.252656 41.0797 0 39.229L5.76898 38.1097C5.76898 38.1694 5.81109 38.4529 5.89531 38.9604C5.97953 39.438 6.17604 39.9753 6.48484 40.5723C6.79365 41.1693 7.25685 41.6916 7.87445 42.1394C8.52013 42.5871 9.39039 42.811 10.4852 42.811C10.9063 42.811 11.3695 42.7662 11.8748 42.6767C12.4082 42.5573 12.8714 42.3483 13.2645 42.0498C13.6575 41.7215 13.854 41.2737 13.854 40.7066C13.854 39.9604 13.5171 39.3932 12.8434 39.0052C12.1696 38.6171 11.3134 38.3037 10.2747 38.0649C9.23599 37.7962 8.12711 37.4977 6.94805 37.1694C5.79706 36.8411 4.71625 36.3933 3.70562 35.8262C2.695 35.2292 1.89492 34.4083 1.30539 33.3636C0.715859 32.289 0.47724 30.901 0.589531 29.1995C0.701823 27.3787 1.37557 25.8713 2.61078 24.6773C3.84599 23.4535 5.68477 22.6774 8.12711 22.349L7.79023 17.8268H13.6855L13.3487 22.5281C15.2015 23.0057 16.7736 23.9609 18.0649 25.3937C19.3563 26.8265 20.016 28.7816 20.0441 31.2592L14.4856 32.1994C14.4856 31.1248 14.2751 30.289 13.854 29.6921C13.461 29.0951 12.9557 28.6772 12.338 28.4384C11.7485 28.1996 11.173 28.0652 10.6116 28.0354C10.0782 27.9757 9.68516 27.9458 9.4325 27.9458C8.89911 27.9458 8.32362 28.0951 7.70602 28.3936C7.08841 28.6921 6.75154 29.2294 6.69539 30.0055C6.69539 30.692 6.94805 31.2293 7.45336 31.6174C7.98674 32.0054 8.67453 32.3188 9.51672 32.5576C10.3589 32.7964 11.2713 33.0352 12.2538 33.274C13.2645 33.483 14.261 33.7665 15.2436 34.1247C16.2261 34.4531 17.1245 34.9008 17.9386 35.468C18.7527 36.0351 19.3703 36.7963 19.7914 37.7515C20.2406 38.7067 20.423 39.9156 20.3388 41.3782C20.2265 43.1393 19.4966 44.5871 18.1491 45.7213C16.8016 46.8556 15.1874 47.6168 13.3066 48.0048L13.6855 52.7062H7.79023Z" fill="url(#paint0_linear_57_4941)"/>
<defs>
<linearGradient id="paint0_linear_57_4941" x1="10.1794" y1="17.8268" x2="10.1794" y2="52.7062" gradientUnits="userSpaceOnUse">
<stop stop-color="#45A53D"/>
<stop offset="1" stop-color="#075700"/>
</linearGradient>
</defs>
</svg>
