<svg width="32" height="32" viewBox="0 0 32 32" fill="none" xmlns="http://www.w3.org/2000/svg">
<path d="M13.8234 8.72545L22.245 5.91824C23.1084 5.63045 24 6.27308 24 7.18316V24.8167C24 25.7268 23.1084 26.3694 22.245 26.0816L13.8234 23.2744C12.7345 22.9114 12 21.8924 12 20.7446V11.2553C12 10.1075 12.7345 9.08843 13.8234 8.72545Z" fill="#0D0E11"/>
<path d="M9.13811 13.1382C9.39846 12.8778 9.39846 12.4557 9.13811 12.1953C8.87776 11.935 8.45565 11.935 8.1953 12.1953L9.13811 13.1382ZM5.33337 16.0001L4.86197 15.5287L4.39056 16.0001L4.86197 16.4715L5.33337 16.0001ZM8.1953 19.8048C8.45565 20.0652 8.87776 20.0652 9.13811 19.8048C9.39846 19.5445 9.39846 19.1224 9.13811 18.862L8.1953 19.8048ZM18.6667 16.6667C19.0349 16.6667 19.3334 16.3683 19.3334 16.0001C19.3334 15.6319 19.0349 15.3334 18.6667 15.3334V16.6667ZM8.1953 12.1953L4.86197 15.5287L5.80478 16.4715L9.13811 13.1382L8.1953 12.1953ZM4.86197 16.4715L8.1953 19.8048L9.13811 18.862L5.80478 15.5287L4.86197 16.4715ZM5.33337 16.6667H18.6667V15.3334H5.33337V16.6667Z" fill="white"/>
</svg>
