<svg width="27" height="27" viewBox="0 0 27 27" fill="none" xmlns="http://www.w3.org/2000/svg">
<path d="M0.453735 6.68336C0.453735 6.30063 0.453735 6.10926 0.572636 5.99036C0.691536 5.87146 0.882903 5.87146 1.26564 5.87146H25.6227C26.0054 5.87146 26.1968 5.87146 26.3157 5.99036C26.4346 6.10926 26.4346 6.30063 26.4346 6.68336V7.09183C26.4346 7.2395 26.4346 7.31334 26.4118 7.37844C26.3923 7.43409 26.361 7.48483 26.3199 7.52713C26.2719 7.57662 26.2058 7.60964 26.0737 7.67569C25.017 8.20403 24.4887 8.4682 24.1044 8.8641C23.7758 9.20252 23.525 9.60844 23.3692 10.0536C23.187 10.5744 23.187 11.1651 23.187 12.3466V20.4857C23.187 23.5476 23.187 25.0785 22.2358 26.0297C21.2846 26.9809 19.7536 26.9809 16.6918 26.9809H10.1965C7.13468 26.9809 5.60374 26.9809 4.65254 26.0297C3.70134 25.0785 3.70134 23.5476 3.70134 20.4857V12.3466C3.70134 11.1651 3.70134 10.5744 3.51911 10.0536C3.36334 9.60844 3.11247 9.20252 2.78394 8.8641C2.39962 8.4682 1.87127 8.20403 0.81458 7.67569C0.682494 7.60964 0.616451 7.57662 0.56841 7.52713C0.527344 7.48483 0.495985 7.43409 0.476514 7.37844C0.453735 7.31334 0.453735 7.2395 0.453735 7.09183V6.68336Z" fill="#FF0000" fill-opacity="0.86"/>
<path d="M10.3071 1.60177C10.4921 1.42913 10.8999 1.27658 11.467 1.16778C12.0342 1.05897 12.7291 1 13.444 1C14.159 1 14.8539 1.05897 15.4211 1.16778C15.9882 1.27658 16.396 1.42913 16.581 1.60177" stroke="#CF0202" stroke-width="1.6238" stroke-linecap="round"/>
<rect x="16.6917" y="12.3666" width="1.6238" height="9.74282" rx="0.811901" fill="#853737"/>
<rect x="8.57275" y="12.3666" width="1.6238" height="9.74282" rx="0.811901" fill="#853737"/>
</svg>
