<svg width="25" height="26" viewBox="0 0 25 26" fill="none" xmlns="http://www.w3.org/2000/svg">
<path d="M21.9004 4.07219L11.7906 0.702255C10.7542 0.356774 9.68384 1.12822 9.68384 2.22073V23.389C9.68384 24.4815 10.7542 25.253 11.7906 24.9075L21.9004 21.5375C23.2076 21.1018 24.0893 19.8785 24.0893 18.5006V7.10913C24.0893 5.73123 23.2076 4.50792 21.9004 4.07219Z" fill="#00FF0A" fill-opacity="0.8"/>
<path d="M13.1195 9.36928C12.8069 9.05674 12.8069 8.55001 13.1195 8.23747C13.432 7.92494 13.9387 7.92494 14.2513 8.23747L13.1195 9.36928ZM17.6869 12.8049L18.2528 12.239L18.8187 12.8049L18.2528 13.3708L17.6869 12.8049ZM14.2513 17.3723C13.9387 17.6849 13.432 17.6849 13.1195 17.3723C12.8069 17.0598 12.8069 16.5531 13.1195 16.2405L14.2513 17.3723ZM1.68081 13.6052C1.23881 13.6052 0.880501 13.2469 0.880501 12.8049C0.880501 12.3629 1.23881 12.0046 1.68081 12.0046V13.6052ZM14.2513 8.23747L18.2528 12.239L17.121 13.3708L13.1195 9.36928L14.2513 8.23747ZM18.2528 13.3708L14.2513 17.3723L13.1195 16.2405L17.121 12.239L18.2528 13.3708ZM17.6869 13.6052H1.68081V12.0046H17.6869V13.6052Z" fill="#E6E6E6"/>
</svg>
